<?xml version="1.0" encoding="utf-8"?>
<svg viewBox="0 0 500 500" xmlns="http://www.w3.org/2000/svg">
  <path d="M 200.49 204.953 Q 200.49 248.313 170.901 271.652 Q 141.311 294.992 86.233 294.992 L 52.639 294.992 L 52.639 407.297 L 19.436 407.297 L 19.436 121.75 L 93.459 121.75 Q 200.49 121.75 200.49 204.953 Z M 52.639 266.477 L 82.522 266.477 Q 126.662 266.477 146.389 252.219 Q 166.115 237.961 166.115 206.516 Q 166.115 178.195 147.561 164.328 Q 129.006 150.461 89.748 150.461 L 52.639 150.461 Z M 488.178 261.789 Q 488.178 332.492 449.799 369.895 Q 411.42 407.297 339.35 407.297 L 260.248 407.297 L 260.248 121.75 L 347.748 121.75 Q 414.35 121.75 451.264 158.664 Q 488.178 195.578 488.178 261.789 Z M 453.022 262.961 Q 453.022 207.102 424.994 178.781 Q 396.967 150.461 341.694 150.461 L 293.451 150.461 L 293.451 378.586 L 333.881 378.586 Q 393.256 378.586 423.139 349.387 Q 453.022 320.188 453.022 262.961 Z" style="fill: rgb(255, 229, 153); white-space: pre;"/>
</svg>